# xmcd
#
# Track frame offsets: 
#        150
#        14130
#        34100
#        52491
#        75174
#        89783
#        101333
#        122471
#        134667
#        150328
#        165661
#        184119
#        198726
#        216004
#        233012
#        253170
#
# Disc length: 3749 seconds
#
# Revision: 0
# Processed by: cddbd v1.5.2PL0 Copyright (c) Steve Scherf et al.
# Submitted via: ExactAudioCopy v0.95a4
#
DISCID=dd0ea310
DTITLE=Various Artist - The Copenhagen Blues Sessions vol. 3
DYEAR=2006
DGENRE=Blues
TTITLE0=Lightnin' Moe - This Is My Time
TTITLE1=Poorboy Poul - Scarecrow Blues
TTITLE2=Fat Tuesday - Check It Out
TTITLE3=Paul Banks - Electricity
TTITLE4=The Fried Okra Band - In A Place Where I Can't Be Called
TTITLE5=Nisse Thorbjørn - Let's Go Out
TTITLE6=Mezzy Slide and The Crew - Time To Go
TTITLE7=Troels Jensen and Kenny Brown - Bluesman
TTITLE8=One-Eyed Mule - Long Gone Man
TTITLE9=HP Lange and The Delta Connection - Whiskey Take Me
TTITLE10=Tim Lothar Petersen - Lil' Miss K.
TTITLE11=Peter Nande - King Of Bad Excuses
TTITLE12=Mama's Blues Joint - Missing You
TTITLE13=MC Hansen - A Penny For Your Thoughts
TTITLE14=Turnip Greens - Carry Me Down The Aisle
TTITLE15=David Kampmann - Along The Nevski
EXTD=
EXTT0=
EXTT1=
EXTT2=
EXTT3=
EXTT4=
EXTT5=
EXTT6=
EXTT7=
EXTT8=
EXTT9=
EXTT10=
EXTT11=
EXTT12=
EXTT13=
EXTT14=
EXTT15=
PLAYORDER=
